<svg width="60" height="60" viewBox="0 0 60 60" fill="none" xmlns="http://www.w3.org/2000/svg">
<g id="Instagram">
<path id="Combined Shape" fill-rule="evenodd" clip-rule="evenodd" d="M30 0C13.4314 0 0 13.4314 0 30C0 46.5686 13.4314 60 30 60C46.5686 60 60 46.5686 60 30C60 13.4314 46.5686 0 30 0ZM23.4041 14.0967C25.1104 14.019 25.6553 14 29.9966 14C34.3433 14 34.8865 14.019 36.5933 14.0967C38.2966 14.1746 39.46 14.4443 40.48 14.8401C41.5332 15.2483 42.4233 15.7949 43.3132 16.6851C44.2034 17.5745 44.75 18.467 45.1599 19.5193C45.5532 20.5366 45.8232 21.6995 45.9033 23.4028C45.98 25.1094 46 25.6548 46 30.0002C46 34.3455 45.98 34.8896 45.9033 36.5962C45.8232 38.2988 45.5532 39.4619 45.1599 40.4795C44.75 41.5317 44.2034 42.4243 43.3132 43.3137C42.4243 44.2036 41.533 44.7517 40.481 45.1604C39.4629 45.5559 38.2988 45.8257 36.5955 45.9036C34.8889 45.9814 34.3452 46.0002 29.9995 46.0002C25.6545 46.0002 25.1094 45.9814 23.4028 45.9036C21.6997 45.8257 20.5366 45.5559 19.5188 45.1604C18.467 44.7517 17.5745 44.2036 16.6853 43.3137C15.7957 42.4243 15.249 41.5317 14.8401 40.4792C14.4446 39.4619 14.175 38.2993 14.0967 36.5959C14.0193 34.8892 14 34.3455 14 30.0002C14 25.6548 14.02 25.1091 14.0964 23.4023C14.1731 21.6997 14.4431 20.5366 14.8396 19.519C15.2498 18.467 15.7964 17.5745 16.6863 16.6851C17.5757 15.7954 18.4683 15.2488 19.5208 14.8401C20.5381 14.4443 21.7007 14.1746 23.4041 14.0967Z" fill="white"/>
<path id="Combined Shape_2" fill-rule="evenodd" clip-rule="evenodd" d="M28.5662 16.8833H29.4683H30.0015C34.2737 16.8833 34.78 16.8987 36.467 16.9753C38.0271 17.0466 38.8738 17.3074 39.4377 17.5264C40.1843 17.8164 40.7168 18.1631 41.2764 18.7231C41.8364 19.2832 42.1831 19.8164 42.4736 20.563C42.6926 21.1265 42.9536 21.9731 43.0247 23.5332C43.1013 25.2197 43.1179 25.7266 43.1179 29.9966C43.1179 34.2666 43.1013 34.7732 43.0247 36.46C42.9534 38.02 42.6926 38.8667 42.4736 39.4299C42.1836 40.1768 41.8364 40.7083 41.2764 41.2681C40.7163 41.8279 40.1846 42.1746 39.4377 42.4646C38.8743 42.6846 38.0271 42.9446 36.467 43.0161C34.7803 43.0928 34.2737 43.1094 30.0015 43.1094C25.7292 43.1094 25.2229 43.0928 23.5361 43.0161C21.9761 42.9441 21.1294 42.6833 20.5652 42.4644C19.8184 42.1743 19.2852 41.8276 18.7251 41.2676C18.165 40.7078 17.8184 40.1755 17.5278 39.4287C17.3088 38.8652 17.0479 38.0186 16.9768 36.4585C16.9001 34.772 16.8848 34.2651 16.8848 29.9924C16.8848 25.7197 16.9001 25.2158 16.9768 23.5291C17.0481 21.969 17.3088 21.1226 17.5278 20.5583C17.8179 19.8118 18.165 19.2783 18.7251 18.7185C19.2852 18.1584 19.8184 17.8118 20.5652 17.521C21.1292 17.301 21.9761 17.041 23.5361 16.9695C25.0122 16.9028 25.5842 16.8828 28.5662 16.8794V16.8833ZM38.5422 19.54C37.4824 19.54 36.6223 20.3989 36.6223 21.4592C36.6223 22.5193 37.4824 23.3794 38.5422 23.3794C39.6023 23.3794 40.4624 22.5193 40.4624 21.4592C40.4624 20.3994 39.6023 19.5393 38.5422 19.54ZM21.7849 30.0002C21.7849 25.4624 25.4639 21.7834 30.0017 21.7834C34.5391 21.7834 38.217 25.4624 38.217 30.0002C38.217 34.5378 34.5393 38.2153 30.0017 38.2153C25.4639 38.2153 21.7849 34.5378 21.7849 30.0002Z" fill="white"/>
<path id="Shape" fill-rule="evenodd" clip-rule="evenodd" d="M30.0016 24.6667C32.947 24.6667 35.335 27.0544 35.335 30.0001C35.335 32.9455 32.947 35.3335 30.0016 35.3335C27.0559 35.3335 24.6682 32.9455 24.6682 30.0001C24.6682 27.0544 27.0559 24.6667 30.0016 24.6667V24.6667Z" fill="white"/>
</g>
</svg>
