<svg width="60" height="60" viewBox="0 0 60 60" fill="none" xmlns="http://www.w3.org/2000/svg">
<g id="Twitter">
<path id="Combined Shape" fill-rule="evenodd" clip-rule="evenodd" d="M30 0C13.4314 0 0 13.4314 0 30C0 46.5686 13.4314 60 30 60C46.5686 60 60 46.5686 60 30C60 13.4314 46.5686 0 30 0ZM29.1646 25.4224L29.1016 24.3843C28.9126 21.6938 30.5703 19.2363 33.1934 18.283C34.1587 17.9441 35.7954 17.9019 36.8657 18.1982C37.2854 18.3254 38.0828 18.7493 38.6494 19.1304L39.6777 19.8296L40.8108 19.4695C41.4404 19.2788 42.2798 18.9609 42.6575 18.7493C43.0142 18.5586 43.3289 18.4526 43.3289 18.5161C43.3289 18.8762 42.5525 20.105 41.9019 20.783C41.0208 21.7363 41.2725 21.821 43.0562 21.1855C44.1262 20.8252 44.1472 20.8252 43.9375 21.2278C43.8115 21.4397 43.1611 22.1812 42.4685 22.8591C41.2935 24.0242 41.2305 24.1514 41.2305 25.1257C41.2305 26.6299 40.5171 29.7654 39.8035 31.4814C38.4814 34.7014 35.6487 38.0276 32.8157 39.7012C28.8286 42.0527 23.5198 42.646 19.05 41.2688C17.5601 40.8027 15 39.6165 15 39.4045C15 39.3411 15.7764 39.2563 16.7207 39.2351C18.6934 39.1926 20.6658 38.6418 22.3445 37.6675L23.4778 36.9895L22.1768 36.5447C20.3301 35.9089 18.6724 34.4473 18.2527 33.0703C18.1267 32.6252 18.1687 32.6042 19.3438 32.6042L20.5608 32.583L19.5327 32.0957C18.3154 31.4814 17.2034 30.4434 16.6577 29.384C16.259 28.6213 15.7554 26.6936 15.9023 26.5452C15.9443 26.4817 16.385 26.6089 16.8887 26.7783C18.3364 27.3079 18.5254 27.1809 17.686 26.291C16.1121 24.6809 15.6296 22.2871 16.385 20.0203L16.7417 19.0034L18.1267 20.3804C20.9595 23.1558 24.2961 24.8081 28.1152 25.2954L29.1646 25.4224Z" fill="white"/>
</g>
</svg>
