<?xml version="1.0" standalone="no"?>
<!DOCTYPE svg PUBLIC "-//W3C//DTD SVG 20010904//EN"
 "http://www.w3.org/TR/2001/REC-SVG-20010904/DTD/svg10.dtd">
<svg version="1.0" xmlns="http://www.w3.org/2000/svg"
 width="512.000000pt" height="512.000000pt" viewBox="0 0 512.000000 512.000000"
 preserveAspectRatio="xMidYMid meet">
<metadata>
Created by potrace 1.11, written by Peter Selinger 2001-2013
</metadata>
<g transform="translate(0.000000,512.000000) scale(0.100000,-0.100000)"
fill="#000000" stroke="none">
<path d="M3205 4893 c-44 -7 -114 -20 -155 -29 -41 -10 -79 -18 -85 -20 -34
-7 -211 -81 -273 -115 -280 -152 -494 -373 -637 -657 -44 -89 -109 -267 -120
-335 -4 -18 -10 -50 -15 -72 -52 -239 -12 -600 91 -832 10 -24 19 -47 19 -52
0 -5 16 -37 35 -71 19 -34 35 -64 35 -66 0 -9 96 -144 145 -204 226 -276 586
-478 935 -526 19 -2 51 -7 70 -10 40 -7 263 -6 300 0 14 3 45 7 70 10 50 7 62
9 135 26 28 6 57 13 65 15 43 9 176 63 255 102 399 199 688 564 790 997 47
200 52 360 21 599 -3 21 -7 41 -10 45 -2 4 -7 25 -10 47 -10 60 -70 231 -111
315 -145 298 -382 538 -677 687 -78 39 -265 108 -322 119 -11 2 -43 8 -71 14
-131 26 -357 32 -480 13z m316 -218 c510 -45 947 -399 1103 -892 13 -43 27
-96 30 -117 4 -21 8 -48 11 -60 8 -38 15 -130 16 -196 5 -585 -394 -1102 -960
-1246 -53 -14 -123 -28 -156 -31 -92 -11 -303 -7 -370 7 -33 6 -72 13 -86 16
-95 13 -302 105 -430 190 -96 64 -271 238 -336 335 -146 218 -222 474 -217
733 1 67 4 140 8 164 86 602 588 1067 1186 1098 63 4 117 8 119 10 2 2 7 2 11
-1 3 -2 35 -7 71 -10z"/>
<path d="M2502 3992 c-1 -7 -12 -29 -25 -50 -40 -63 -95 -203 -118 -297 -24
-97 -34 -322 -19 -393 5 -20 11 -50 14 -67 10 -60 45 -165 80 -240 100 -213
278 -395 492 -503 62 -31 194 -77 249 -86 17 -3 51 -9 77 -14 60 -12 230 -13
288 -2 25 4 61 11 80 14 92 14 278 88 352 140 21 15 17 16 -67 17 -50 0 -103
2 -120 4 -16 2 -57 6 -89 10 -33 3 -62 8 -66 10 -4 2 -22 7 -41 10 -112 19
-315 105 -443 188 -106 69 -122 83 -227 187 -213 212 -338 457 -395 775 -4 22
-10 101 -14 175 -4 74 -7 129 -8 122z"/>
<path d="M2035 2282 c-64 -61 -244 -227 -414 -381 -14 -13 -53 -49 -87 -80
-33 -31 -107 -99 -164 -151 -137 -125 -210 -192 -284 -262 -34 -31 -72 -66
-85 -77 -14 -12 -72 -65 -129 -119 -58 -53 -113 -104 -123 -113 -15 -13 -126
-115 -243 -223 -17 -15 -71 -65 -120 -110 -129 -117 -176 -165 -176 -179 1
-21 38 -95 67 -134 79 -105 235 -230 295 -237 35 -4 35 -4 148 120 30 33 98
106 150 163 113 123 121 132 230 251 47 51 96 105 110 120 32 35 111 120 230
250 52 57 109 118 125 136 43 46 107 116 210 229 50 54 97 106 106 115 13 14
63 69 294 319 22 24 68 74 102 110 35 36 63 72 63 80 0 42 -189 231 -231 231
-8 0 -41 -26 -74 -58z"/>
</g>
</svg>
