<svg width="60" height="60" viewBox="0 0 60 60" fill="none" xmlns="http://www.w3.org/2000/svg">
<g id="LinkedIN">
<path id="Combined Shape" fill-rule="evenodd" clip-rule="evenodd" d="M30 0C13.4314 0 0 13.4314 0 30C0 46.5686 13.4314 60 30 60C46.5686 60 60 46.5686 60 30C60 13.4314 46.5686 0 30 0ZM14.4021 24.8474H21.2007V45.2747H14.4021V24.8474ZM21.6484 18.5283C21.6042 16.5254 20.1721 15 17.8462 15C15.5205 15 14 16.5254 14 18.5283C14 20.4897 15.4756 22.0591 17.7581 22.0591H17.8015C20.1721 22.0591 21.6484 20.4897 21.6484 18.5283ZM37.8914 24.3677C42.3652 24.3677 45.7192 27.2878 45.7192 33.5623L45.719 45.2744H38.9207V34.3459C38.9207 31.6008 37.9368 29.7278 35.4756 29.7278C33.5974 29.7278 32.4785 30.9905 31.9873 32.2102C31.8074 32.6472 31.7634 33.2563 31.7634 33.8669V45.2751H24.9639C24.9639 45.2751 25.0535 26.7646 24.9639 24.8479H31.7634V27.7412C32.6658 26.3503 34.2817 24.3677 37.8914 24.3677Z" fill="white"/>
</g>
</svg>
